<svg width="36" height="34" viewBox="0 0 36 34" fill="none" xmlns="http://www.w3.org/2000/svg">
<path fill-rule="evenodd" clip-rule="evenodd" d="M9.97222 7.57559C9.97222 5.576 10.7917 3.65831 12.2503 2.24439C13.7089 0.830466 15.6872 0.0361328 17.75 0.0361328C19.8128 0.0361328 21.7911 0.830466 23.2497 2.24439C24.7083 3.65831 25.5278 5.576 25.5278 7.57559C25.5278 9.57518 24.7083 11.4929 23.2497 12.9068C21.7911 14.3207 19.8128 15.115 17.75 15.115C15.6872 15.115 13.7089 14.3207 12.2503 12.9068C10.7917 11.4929 9.97222 9.57518 9.97222 7.57559ZM9.97222 18.8848C7.39373 18.8848 4.92084 19.8777 3.09757 21.6451C1.2743 23.4125 0.25 25.8096 0.25 28.3091C0.25 29.8088 0.864582 31.2471 1.95854 32.3075C3.05251 33.3679 4.53624 33.9637 6.08333 33.9637H29.4167C30.9638 33.9637 32.4475 33.3679 33.5415 32.3075C34.6354 31.2471 35.25 29.8088 35.25 28.3091C35.25 25.8096 34.2257 23.4125 32.4024 21.6451C30.5792 19.8777 28.1063 18.8848 25.5278 18.8848H9.97222Z" fill="black"/>
</svg>
