<svg width="21" height="20" viewBox="0 0 21 20" fill="none" xmlns="http://www.w3.org/2000/svg">
<path d="M8.34039 16.1812C10.0278 16.179 11.6722 15.6491 13.0434 14.6658L18.0302 19.653C18.1422 19.7643 18.2751 19.8523 18.4214 19.9119C18.5676 19.9714 18.7243 20.0014 18.8822 20C19.5663 20 20.0605 19.4739 20.0605 18.8005C20.0605 18.4849 19.9555 18.1905 19.7239 17.9593L14.7685 12.9932C15.81 11.6254 16.4308 9.93174 16.4308 8.09039C16.4308 3.64007 12.7907 0 8.34039 0C3.87974 0 0.25 3.64007 0.25 8.09039C0.25 12.5407 3.87974 16.1812 8.34039 16.1812ZM8.34039 14.4346C4.85788 14.4346 1.99619 11.5626 1.99619 8.09039C1.99619 4.61865 4.85788 1.74619 8.34039 1.74619C11.8121 1.74619 14.6846 4.61865 14.6846 8.09039C14.6846 11.5626 11.8121 14.4346 8.34039 14.4346Z" fill="black"/>
</svg>
